<svg version="1.1" x="0px" y="0px" width="130.01139268087" height="81.611124475426" xmlns="http://www.w3.org/2000/svg" xmlns:xlink="http://www.w3.org/1999/xlink" xmlns:a="http://ns.adobe.com/AdobeSVGViewerExtensions/3.0/" xml:space="preserve"><g transform="translate(0 0)"><g transform="translate(0 0) scale(0.69980987238828 0.69980987238828) rotate(0 92.890510559082 58.309497833252)"><path d="m117.186 115.337 14.692.081L66.531 0 0 115.236h40.465l34.228-58.262-7.505-13.237-33.917 59.039H21.582l44.949-77.855z" fill="#62be1e"></path><path d="m51.985 115.418 14.453-.05.932-1.719a.282.282 0 0 1 .053.03l3.097-5.844 8.394-15.488 13.563 24.272h14.171L78.933 66.681l-26.948 48.737zM119.249 0 97.415 37.769l7.415 12.025 14.419-24.873 44.949 77.855h-11.689l-33.747-58.693-7.443 11.941 33.996 59.212h40.466z" fill="#467c0c"></path></g></g></svg>